<svg width="208" height="197" viewBox="0 0 208 197" fill="none" xmlns="http://www.w3.org/2000/svg">
<path d="M177.184 37.0166L186.731 28.5972L180.397 47.0482L177.184 37.0166Z" fill="#FEDA00"/>
<path d="M177.184 37.0166L186.731 28.5972L167.651 32.5525L177.184 37.0166Z" fill="#B49930"/>
<path d="M177.184 37.0168L167.651 32.5527L180.397 47.0485L177.184 37.0168Z" fill="#605C2C"/>
<path d="M128.682 12.5037L131.122 0L137.342 18.4869L128.682 12.5037Z" fill="#FEDA00"/>
<path d="M128.682 12.5037L131.122 0L118.411 14.7895L128.682 12.5037Z" fill="#B49930"/>
<path d="M128.682 12.5039L118.411 14.7897L137.341 18.4871L128.682 12.5039Z" fill="#605C2C"/>
<path d="M73.1078 15.7067L69.6152 3.46094L83.5426 17.1111L73.1078 15.7067Z" fill="#FEDA00"/>
<path d="M73.1079 15.7067L69.6153 3.46094L64.9919 22.4207L73.1079 15.7067Z" fill="#B49930"/>
<path d="M73.1079 15.7065L64.9919 22.4206L83.5427 17.111L73.1079 15.7065Z" fill="#605C2C"/>
<path d="M30.2381 47.3851L19.6172 40.3701L39.0626 41.6527L30.2381 47.3851Z" fill="#FEDA00"/>
<path d="M30.2381 47.3851L19.6172 40.3701L28.4417 57.7679L30.2381 47.3851Z" fill="#B49930"/>
<path d="M30.238 47.3852L28.4417 57.768L39.0625 41.6528L30.238 47.3852Z" fill="#605C2C"/>
<path d="M12.7179 96.2104L0 95.9453L17.1337 86.6445L12.7179 96.2104Z" fill="#FEDA00"/>
<path d="M12.7179 96.2104L0 95.9453L16.7257 105.948L12.7179 96.2104Z" fill="#B49930"/>
<path d="M12.7178 96.2104L16.7257 105.948L17.1336 86.6445L12.7178 96.2104Z" fill="#605C2C"/>
<path d="M25.8865 149.235L14.9937 155.813L24.5195 138.788L25.8865 149.235Z" fill="#FEDA00"/>
<path d="M25.8865 149.235L14.9937 155.813L34.4748 155.326L25.8865 149.235Z" fill="#B49930"/>
<path d="M25.8865 149.235L34.4748 155.325L24.5195 138.788L25.8865 149.235Z" fill="#605C2C"/>
<path d="M174.579 58.291C174.579 58.291 174.577 58.291 174.572 58.291C172.997 57.0658 170.485 56.686 167.601 54.78C165.84 53.6192 140.154 35.4977 116.379 34.7024C73.0937 33.2478 34.6825 84.7459 34.6825 114.841C34.6825 132.769 40.68 149.314 50.8214 162.663C50.807 162.677 50.8357 162.656 50.8214 162.663C35.4483 147.831 25.8723 126.972 25.8723 103.914C25.8723 58.9001 62.3082 22.3921 107.289 22.3921C115.735 22.3921 123.879 23.689 131.537 26.0895C149.272 31.5997 164.373 43.2436 174.586 58.2839L174.579 58.291Z" fill="#FEDA00"/>
<path d="M174.643 58.3986C163.45 53.3398 150.575 50.2443 136.876 50.2443H136.132C101.907 50.5094 72.9434 68.681 62.616 93.8103C72.3852 65.4924 99.7103 45.1138 131.888 45.0923C147.912 45.078 162.663 50.0078 174.643 58.4057V58.3986Z" fill="#605C2C"/>
<path d="M168.467 54.2853C148.363 40.9934 132.861 41.6454 114.704 41.6526C98.873 41.6526 89.5403 44.0387 77.2304 50.6453C77.2089 50.6524 77.1803 50.6668 77.1588 50.6811C53.4551 62.6761 36.987 88.5219 36.987 118.208C36.987 134.811 42.14 150.181 50.807 162.577C40.7086 149.242 34.7397 132.733 34.7397 114.848C34.7397 70.5867 71.3116 34.8526 116.436 34.7093C127.737 34.6735 135.946 37.8979 138.959 38.7219C142.917 39.8039 156.193 46.3961 156.193 46.3961C162.226 49.7138 163.149 50.4375 168.474 54.2925L168.467 54.2853Z" fill="#B49930"/>
<path d="M174.579 58.2839C162.591 49.886 147.848 44.9561 131.823 44.9705C99.6459 44.9991 72.3279 65.3705 62.5516 93.6884C62.5444 93.7099 62.5372 93.7243 62.5301 93.7529C59.9321 100.109 58.5151 106.916 58.5151 113.988C58.5151 118.925 58.5294 124.658 59.8319 129.286C57.3342 121.584 55.3445 112.577 54.6288 104.071C52.9684 84.2659 62.7949 60.4335 78.7906 49.7068C85.6827 45.0851 98.0714 39.5892 116.687 39.0231C129.598 38.629 143.511 39.0016 171.988 55.8261C173.262 56.5785 173.978 57.6677 174.586 58.2839H174.579Z" fill="#FEDA00"/>
<path d="M153.402 71.6616L151.849 73.0302L146.452 77.7809L134.586 88.2282C134.271 88.5004 133.878 88.6509 133.463 88.6724C133.076 88.6939 132.668 88.6079 132.289 88.4288C132.096 88.3356 131.909 88.2067 131.738 88.0562L130.328 86.8452L123.45 80.9552C122.334 79.995 122.176 78.3542 123.128 77.523L140.648 62.1029C141.307 61.5296 142.301 61.501 143.16 62.0241L143.468 62.2175L144.842 63.0702L146.553 64.1307L151.949 67.4841L152.75 67.9786C153.223 68.2723 153.573 68.6808 153.788 69.1322C154.21 70.0136 154.117 71.0454 153.409 71.6616H153.402Z" fill="#25215B"/>
<path d="M176.44 85.928L157.095 102.953L157.088 102.967L154.504 105.239C153.788 105.862 152.672 105.834 151.799 105.174C151.749 105.139 151.706 105.103 151.655 105.067L148.127 102.036L143.647 98.1953L141.936 96.7263L140.713 95.673L139.99 95.0496C138.866 94.0895 138.716 92.4486 139.668 91.6174L145.085 86.8595L149.086 83.3341L151.627 81.0913L159.771 73.9187C160.215 73.5246 160.823 73.3884 161.439 73.5031C161.725 73.5604 162.004 73.6679 162.276 73.8399L166.964 76.749L170.042 78.6622L175.781 82.2306C177.17 83.0905 177.506 84.975 176.44 85.9137V85.928Z" fill="#25215B"/>
<path d="M177.871 127.602L161.124 113.243C160 112.282 159.85 110.642 160.802 109.803L184.234 89.181C184.885 88.6078 185.887 88.5791 186.739 89.1022L206.112 101.147C207.501 102.007 207.837 103.892 206.771 104.83L180.712 127.767C179.961 128.426 178.759 128.355 177.871 127.595V127.602Z" fill="#25215B"/>
<path d="M101.965 113.479L95.4163 104.852C94.6648 103.856 94.7006 102.552 95.5022 101.849L113.123 86.3362C113.91 85.6412 115.184 85.7558 116.071 86.6014L123.922 94.0821C124.953 95.0638 125.053 96.6187 124.137 97.4212L105.214 114.074C104.312 114.869 102.817 114.59 101.965 113.472V113.479Z" fill="#25215B"/>
<path d="M143.289 113.687C143.289 114.246 143.089 114.776 142.666 115.142L140.805 116.776L130.163 126.141L121.926 133.399L121.339 133.908L120.63 134.532C119.728 135.327 118.233 135.047 117.381 133.93L116.644 132.955L112.543 127.552L112.428 127.395L110.024 124.22L108.156 121.763C107.404 120.767 107.44 119.463 108.241 118.76L117.08 110.979L123.586 105.246L124.81 104.172L128.438 100.976C129.233 100.288 130.5 100.395 131.387 101.248L132.818 102.617L135.538 105.211L136.468 106.099L138.573 108.105L142.452 111.796C142.516 111.853 142.566 111.91 142.623 111.975C142.688 112.039 142.738 112.111 142.788 112.183C142.824 112.233 142.852 112.276 142.881 112.326C142.917 112.376 142.945 112.433 142.974 112.491C143.003 112.541 143.031 112.598 143.06 112.655C143.089 112.713 143.11 112.77 143.131 112.827C143.153 112.885 143.167 112.942 143.189 112.999C143.239 113.15 143.267 113.307 143.282 113.458C143.289 113.53 143.296 113.608 143.296 113.68L143.289 113.687Z" fill="#25215B"/>
<path d="M167.887 139.096L141.729 162.118C140.827 162.914 139.331 162.634 138.479 161.516L131.043 151.728L128.632 148.554L127.243 146.727L125.232 144.083C124.481 143.087 124.516 141.783 125.318 141.073L133.069 134.259L139.088 128.956L146.824 122.149L148.85 120.365C149.644 119.677 150.911 119.785 151.799 120.63L167.673 135.764C168.703 136.745 168.803 138.3 167.887 139.103V139.096Z" fill="#25215B"/>
<path d="M72.3423 138.802L67.5257 128.649C67.0891 127.731 67.2394 126.714 67.905 126.133L85.4824 110.656C86.42 109.832 87.9945 110.169 88.8176 111.38L94.9367 120.387C95.6023 121.368 95.5308 122.601 94.765 123.267L75.885 139.884C74.8329 140.808 73.0294 140.257 72.3423 138.795V138.802Z" fill="#25215B"/>
<path d="M109.25 144.85L100.29 152.732L98.1 154.659L90.3705 161.466L87.2286 164.232C86.1766 165.157 84.3802 164.612 83.686 163.15L76.9012 148.841C76.4646 147.917 76.6149 146.906 77.2805 146.319L97.463 128.555C98.4006 127.731 99.9823 128.068 100.805 129.279L104.577 134.84L106.874 138.222L107.225 138.738L109.422 141.976C110.088 142.958 110.016 144.183 109.258 144.857L109.25 144.85Z" fill="#25215B"/>
<path d="M91.8593 170.817L101.908 161.982L112.299 152.839H112.171L112.886 152.208L113.509 151.664C114.454 150.84 116.028 151.177 116.851 152.388L117.846 153.857L121.575 159.331L122.427 160.592L124.731 163.981L129.24 170.609C129.913 171.591 129.834 172.816 129.068 173.49L111.319 189.082L105.128 194.521L103.568 195.889L102.838 196.534C101.786 197.458 99.9752 196.907 99.2882 195.445L98.8516 194.521V194.442L95.5308 187.441L94.7364 185.757L92.1957 180.397L89.8124 175.367L89.7408 175.224C89.3186 174.321 89.4689 173.332 90.113 172.759" fill="#25215B"/>
<path d="M109.251 144.85L100.29 152.732L98.1001 154.659L90.3706 161.466L104.577 134.825L106.874 138.207L107.225 138.723L109.422 141.962C110.088 142.944 110.016 144.169 109.258 144.843L109.251 144.85Z" fill="#588DCA"/>
<path d="M143.382 113.465C143.368 113.314 143.339 113.157 143.289 113.006C143.275 112.949 143.253 112.892 143.232 112.834C143.21 112.777 143.189 112.72 143.16 112.662C143.132 112.605 143.11 112.548 143.074 112.498C143.046 112.44 143.01 112.39 142.981 112.333C142.953 112.283 142.924 112.24 142.888 112.189C142.838 112.118 142.781 112.046 142.724 111.982C142.673 111.917 142.616 111.86 142.552 111.803L138.673 108.112L136.569 106.106L135.638 105.217L132.919 102.624L131.487 101.255C130.6 100.409 129.326 100.295 128.539 100.983L124.91 104.178L123.686 105.253L117.181 110.986L110.124 124.227L112.529 127.402L112.643 127.559L116.744 132.962L117.481 133.937C118.333 135.054 119.836 135.334 120.73 134.539L121.439 133.915L122.026 133.406L130.263 126.155L140.906 116.79L142.767 115.156C143.189 114.791 143.389 114.26 143.389 113.701C143.389 113.63 143.389 113.551 143.375 113.479L143.382 113.465Z" fill="#588DCA"/>
<path d="M153.731 69.1896C153.516 68.7381 153.166 68.3297 152.693 68.0359L151.892 67.5415L146.495 64.1881L144.785 63.1276L143.411 62.2749L130.271 86.9098L131.68 88.1207C131.852 88.2712 132.038 88.393 132.231 88.4933C132.611 88.6796 133.019 88.7584 133.405 88.7369C133.82 88.7154 134.214 88.565 134.529 88.2927L146.395 77.8454L151.791 73.0947L153.344 71.7261C154.046 71.1099 154.139 70.0781 153.724 69.1967L153.731 69.1896Z" fill="#588DCA"/>
<path d="M122.083 160.377L121.231 159.123L117.502 153.642L116.508 152.173C115.685 150.962 114.11 150.625 113.165 151.449L112.543 151.994L111.827 152.631L101.564 161.774L90.9932 170.609L89.118 172.179C88.4238 172.759 88.2592 173.777 88.7173 174.694L88.7888 174.837L91.3439 179.968L94.0778 185.435L94.9366 187.147L98.5008 194.291L98.9374 195.216C99.6316 196.677 101.435 197.229 102.487 196.305L103.217 195.66L104.777 194.291L110.968 188.853L124.38 163.752L122.076 160.363L122.083 160.377Z" fill="#588DCA"/>
<path d="M122.448 160.585L121.596 159.331L117.867 153.849L116.873 152.38C116.05 151.169 114.475 150.833 113.53 151.657L112.908 152.201L112.192 152.839L101.929 161.982L91.3582 170.817L89.483 172.386C88.7888 172.967 88.6242 173.984 89.0823 174.901L89.1538 175.045L91.7088 180.175L94.4428 185.642L95.3016 187.355L98.8658 194.499L99.3023 195.423C99.9966 196.885 101.8 197.437 102.852 196.512L103.582 195.867L105.142 194.499L111.333 189.06L124.745 163.96L122.441 160.57L122.448 160.585Z" fill="#588DCA"/>
<path d="M139.052 129.007L133.033 134.309L125.282 141.124C124.48 141.826 124.445 143.137 125.196 144.133L127.207 146.777L128.596 148.604L131.008 151.779L146.781 122.192L139.045 129L139.052 129.007Z" fill="#588DCA"/>
<path d="M166.878 76.7632L162.19 73.854C161.918 73.6821 161.632 73.5746 161.353 73.5172C160.745 73.4026 160.136 73.5387 159.685 73.9328L151.541 81.1055L149 83.3483L144.999 86.8737L139.582 91.6315C138.63 92.4699 138.78 94.1036 139.904 95.0638L140.627 95.6872L141.85 96.7405L143.561 98.2094L148.041 102.05L151.57 105.081C151.612 105.117 151.663 105.153 151.713 105.189C152.586 105.848 153.702 105.876 154.418 105.253L157.002 102.982H157.009V102.967L169.949 78.6907L166.871 76.7775L166.878 76.7632Z" fill="#588DCA"/>
<path d="M109.251 144.85L100.29 152.732L107.218 138.723L109.415 141.962C110.081 142.944 110.009 144.169 109.251 144.842V144.85Z" fill="#25215B"/>
<path d="M112.672 151.9L95.0727 187.398L94.2926 185.786L91.7233 180.641L89.1396 175.468L91.5444 170.617L91.7877 169.972L101.6 161.774L111.856 152.631L112.672 151.9Z" fill="#25215B"/>
<path d="M135.717 105.117L121.51 133.808L120.802 134.431C119.9 135.226 118.404 134.947 117.553 133.829L116.816 132.855L112.715 127.452L123.751 105.146L124.974 104.071L128.603 100.875C129.397 100.187 130.664 100.295 131.552 101.147L132.983 102.516L135.703 105.11L135.717 105.117Z" fill="#25215B"/>
<path d="M139.589 91.6246L145.006 86.8667L140.641 95.6802L139.918 95.0568C138.794 94.0966 138.644 92.4558 139.596 91.6246H139.589Z" fill="#25215B"/>
<path d="M153.774 69.1323L151.841 73.0303L146.445 77.781L134.579 88.2282C134.264 88.5005 133.87 88.651 133.455 88.6725C133.069 88.694 132.661 88.608 132.281 88.4289L144.835 63.0703L146.545 64.1308L151.942 67.4842L152.743 67.9787C153.215 68.2724 153.566 68.6809 153.781 69.1323H153.774Z" fill="#25215B"/>
<path d="M121.575 159.252L105.128 194.506L103.568 195.875L102.838 196.52C101.786 197.444 99.8034 196.993 99.1092 195.531L98.7371 194.735L117.846 153.771L121.575 159.252Z" fill="#25215B"/>
<path d="M125.282 141.074L133.033 134.259L127.215 146.727L125.203 144.083C124.452 143.087 124.488 141.783 125.289 141.074H125.282Z" fill="#25215B"/>
<path d="M143.003 112.268L140.934 116.711L130.292 126.076L138.701 108.048L142.58 111.738C142.645 111.795 142.695 111.853 142.752 111.917C142.817 111.982 142.867 112.053 142.917 112.125C142.953 112.175 142.981 112.218 143.01 112.268H143.003Z" fill="#25215B"/>
<path d="M161.353 73.5172L148.048 102.043L143.568 98.2023L151.541 81.1055L159.686 73.9328C160.129 73.5387 160.738 73.4026 161.353 73.5172Z" fill="#25215B"/>
</svg>
