<svg width="291" height="54" viewBox="0 0 291 54" fill="none" xmlns="http://www.w3.org/2000/svg">
<path d="M16.5248 3.22852C19.044 3.22852 21.1768 3.59395 22.9231 4.32483L25.3636 5.34949C25.5783 5.44264 25.7858 5.4928 26.0005 5.4928C26.2868 5.4928 26.5659 5.37815 26.8522 5.14169L27.346 4.71893C27.4176 4.62578 27.5464 4.57562 27.7325 4.57562C28.3194 4.55412 28.6128 5.12736 28.6128 6.30966C28.6128 6.71093 28.7631 7.9004 29.0709 9.88523L29.6363 13.5324C29.7508 14.3135 29.8152 14.7936 29.8152 14.9799C29.8152 15.7107 29.5647 16.0762 29.0565 16.0762C28.6701 16.0762 28.2907 15.5101 27.9043 14.3708C27.0598 11.8127 25.3349 9.70609 22.7441 8.05087C20.1462 6.39565 17.2548 5.56445 14.0628 5.56445C11.5292 5.56445 9.40363 6.31683 7.70029 7.81441C5.99694 9.31199 5.14526 11.1822 5.14526 13.425C5.14526 15.4098 5.69635 17.1223 6.80567 18.5626C7.77185 19.7879 8.8239 20.6907 9.96185 21.2568C11.0998 21.8229 13.9053 22.8547 18.3784 24.338C27.0812 27.1898 31.4326 31.8689 31.4326 38.3751C31.4326 42.7819 29.8295 46.3861 26.6232 49.1949C23.4169 51.9966 19.3088 53.4011 14.2918 53.4011C12.4739 53.4011 10.4843 53.1431 8.30146 52.62C6.1186 52.1041 4.52261 51.5022 3.51348 50.8143C3.09122 50.5277 2.80493 50.2339 2.66895 49.9115C2.52581 49.5962 2.31827 48.7722 2.03199 47.4537C1.98189 47.2674 1.68845 46.1926 1.15168 44.2364C0.536186 42.1155 0.235596 40.6036 0.235596 39.7079C0.235596 38.9985 0.478938 38.6617 0.958452 38.6832C1.38787 38.7047 1.77433 39.2851 2.11071 40.4244C2.95522 43.3551 4.74446 45.82 7.46409 47.8048C10.1909 49.7897 13.1467 50.7857 16.3458 50.7857C19.545 50.7857 22.329 49.8327 24.5763 47.9195C26.8236 46.0063 27.9401 43.6847 27.9401 40.9403C27.9401 38.196 26.9023 36.1108 24.8339 34.3194C23.7747 33.3951 20.7187 32.091 15.6588 30.3856C10.4342 28.6157 6.73409 26.6596 4.55838 24.5171C2.38268 22.3746 1.29483 19.5944 1.29483 16.1693C1.29483 12.3501 2.71191 9.24034 5.55321 6.83274C8.39451 4.42515 12.0517 3.22852 16.5248 3.22852Z" fill="#B49930"/>
<path d="M60.8763 48.0913C58.1424 51.6311 54.8215 53.4009 50.9138 53.4009C47.6145 53.4009 45.038 52.3835 43.1915 50.3413C41.3451 48.2991 40.4146 45.4545 40.4146 41.8001L40.4504 39.4641V27.7558C40.4504 26.552 40.1999 25.7136 39.7061 25.2407C39.2123 24.7678 38.2962 24.4955 36.9507 24.4238C36.3638 24.3808 36.0776 24.1372 36.099 23.7001C36.1205 23.2845 36.8505 23.0409 38.2819 22.9764L40.9586 22.8689C41.5454 22.8188 42.4257 22.654 43.5995 22.3745C43.9287 22.2814 44.1863 22.2312 44.3724 22.2312C45.0022 22.2312 45.3243 22.7829 45.3243 23.8936V24.4238L45.1812 40.238V41.3701L45.7465 45.6479C46.2404 47.1598 47.1636 48.4066 48.5091 49.3955C49.8546 50.3843 51.3218 50.8787 52.9035 50.8787C54.979 50.8787 56.8255 50.2696 58.4501 49.0443C60.0676 47.8191 60.8763 46.429 60.8763 44.8597V27.9492C60.8763 26.6021 60.6473 25.685 60.1892 25.1905C59.7312 24.6961 58.8724 24.4453 57.627 24.4453C56.8756 24.4453 56.4963 24.2232 56.4963 23.7861C56.4963 23.2559 56.9185 22.9764 57.7702 22.9549L58.9368 22.8833L61.4131 22.7758C62.2146 22.7256 63.1307 22.5393 64.1685 22.2097C64.4977 22.1166 64.784 22.0592 65.0202 22.0306C65.514 22.0091 65.7645 22.4318 65.7645 23.306V46.2785C65.7645 48.0913 65.9577 49.288 66.3442 49.8684C66.7306 50.4488 67.5251 50.7354 68.7274 50.7354H69.2928L69.7867 50.6996C70.302 50.6996 70.5739 50.8787 70.6026 51.2442C70.624 51.7529 69.9441 52.0395 68.5557 52.1183L66.3299 52.2616C64.7983 52.3333 63.8106 52.4264 63.3598 52.5483C62.7944 52.6916 62.3578 52.7632 62.05 52.7632C61.2985 52.7632 60.9192 51.6597 60.9192 49.4456L60.8835 48.0913H60.8763Z" fill="#B49930"/>
<path d="M84.7301 28.4152C87.8864 24.6676 91.1642 22.7903 94.5566 22.7903C98.3283 22.7903 101.306 24.338 103.496 27.4335C105.006 29.5616 105.757 32.7933 105.757 37.1427V45.6123L105.721 46.6728L105.829 48.371C106.086 49.933 107.074 50.8359 108.799 51.101L110.28 51.316C110.917 51.4091 111.247 51.6384 111.268 52.0039C111.29 52.5126 110.903 52.7634 110.109 52.7634C109.851 52.7634 109.393 52.7204 108.734 52.6416C107.962 52.5341 106.523 52.4768 104.433 52.4768L100.941 52.5843H99.6022L98.5788 52.6559L98.085 52.5484C97.9204 52.4481 97.8416 52.269 97.8416 52.0039C97.8416 51.6384 98.0564 51.4091 98.4786 51.316L99.5378 51.0365C100.483 50.8001 100.948 49.9545 100.948 48.4928V36.3043C100.948 33.0297 100.189 30.5075 98.679 28.7233C97.1689 26.9462 95.0218 26.0577 92.2306 26.0577C90.2696 26.0577 88.5305 26.6381 87.0061 27.7918C85.4816 28.9454 84.723 30.271 84.723 31.7543V45.2612L84.7588 46.3216L84.7946 48.0915C84.9091 50.0763 86.548 51.1655 89.7042 51.3518C90.4843 51.4235 90.8708 51.6814 90.8708 52.1113C90.8708 52.5413 90.5988 52.7634 90.0549 52.7634C89.6541 52.7634 89.0529 52.6989 88.2514 52.5628C87.8005 52.5054 86.6983 52.4839 84.9305 52.4839C81.1875 52.4839 78.9474 52.5341 78.2174 52.6488C77.4874 52.7276 77.015 52.7706 76.8074 52.7706C76.3566 52.7706 76.149 52.5771 76.1705 52.1902C76.1919 51.8964 76.421 51.6671 76.8432 51.5023C78.0456 51.0795 78.8543 50.5636 79.2623 49.9474C79.6774 49.3311 79.8778 48.3423 79.8778 46.9809V31.0091C79.8778 29.3395 79.6774 28.2002 79.2766 27.5983C78.8758 26.9964 78.1243 26.6955 77.015 26.6955L75.4977 26.7313C75.283 26.7313 75.0969 26.6811 74.9323 26.588C74.7176 26.4877 74.6174 26.3228 74.6174 26.0792C74.6174 25.7424 74.9252 25.5132 75.5335 25.3913C77.108 25.1047 78.6325 24.6246 80.0925 23.9439L81.9676 23.0267C82.6976 22.6756 83.1556 22.4463 83.3489 22.3532C83.6781 22.1669 83.9644 22.0737 84.1934 22.0737C84.6156 22.0737 84.8089 22.4177 84.7588 23.0984C84.7373 23.4782 84.723 23.9224 84.723 24.4455V28.4438L84.7301 28.4152Z" fill="#B49930"/>
<path d="M124.594 23.851H130.391C131.193 23.851 131.687 23.7578 131.873 23.5787L132.367 23.0341C132.531 22.8765 132.732 22.7976 132.968 22.7976C133.319 22.7976 133.483 22.9768 133.462 23.3207C133.44 23.464 133.354 23.7292 133.211 24.1304L132.646 25.5707C132.338 26.3875 131.894 26.8246 131.3 26.8676H124.623V46.5082C124.623 48.3712 124.873 49.6108 125.382 50.2342C125.89 50.8576 126.963 51.2302 128.617 51.3448C129.49 51.4165 129.926 51.6744 129.926 52.1044C129.926 52.5128 129.597 52.7206 128.939 52.7206C128.681 52.7206 127.958 52.6633 126.784 52.5558C126.054 52.4985 125.339 52.4698 124.63 52.4698C121.567 52.4698 119.592 52.5343 118.69 52.6704C118.124 52.7493 117.702 52.7923 117.416 52.7923C116.779 52.7923 116.464 52.5486 116.464 52.0685C116.464 51.7533 116.679 51.524 117.101 51.3807L117.774 51.1657C118.525 50.9292 119.055 50.4921 119.348 49.8401C119.642 49.1952 119.792 48.1634 119.792 46.7518V26.8605H115.691C114.94 26.8605 114.575 26.71 114.596 26.4019C114.646 25.4847 114.811 24.8255 115.111 24.4385C115.405 24.0516 115.856 23.8581 116.471 23.8581H119.828C120.179 18.1043 121.338 13.5972 123.292 10.3441C124.895 7.65703 126.792 5.52888 128.982 3.95965C131.172 2.39041 133.34 1.60938 135.487 1.60938C137.634 1.60938 138.565 2.0608 138.565 2.95648C138.565 3.21444 138.529 3.48672 138.457 3.77334L138.064 5.08462C137.634 6.66819 137.183 7.45639 136.732 7.45639C136.496 7.45639 136.296 7.27009 136.131 6.89032C135.637 5.70802 134.392 5.12045 132.395 5.12045C127.157 5.12045 124.537 10.1219 124.537 20.1321L124.609 23.8725L124.594 23.851Z" fill="#B49930"/>
<path d="M149.186 2.80583V44.3368C149.186 46.2715 149.407 47.7619 149.858 48.8009C150.374 49.9832 151.834 50.7714 154.238 51.1727C154.897 51.2873 155.24 51.531 155.262 51.8964C155.283 52.4266 155.04 52.6918 154.517 52.6918C154.303 52.6918 153.995 52.6416 153.594 52.5485C153.236 52.4768 152.707 52.441 151.998 52.441L148.914 52.4768H147.074C144.834 52.4768 143.446 52.5126 142.93 52.5843C142.172 52.6989 141.728 52.7634 141.585 52.7634C140.969 52.7634 140.654 52.5341 140.626 52.0684C140.604 51.6743 140.934 51.3877 141.613 51.2014C142.673 50.8932 143.388 50.4848 143.753 49.9832C144.118 49.4745 144.304 48.6576 144.304 47.5255V8.28741C144.304 6.11627 143.553 5.03429 142.043 5.03429L140.275 5.10594C140.039 5.10594 139.839 5.08445 139.674 5.03429C139.388 4.91247 139.252 4.71901 139.252 4.45389C139.252 4.11711 139.559 3.85916 140.175 3.69435C140.977 3.50805 141.714 3.27875 142.372 3.02079L144.534 2.13944C146.187 1.48022 147.332 0.914151 147.976 0.44123C148.262 0.254928 148.498 0.161778 148.685 0.161778C149.042 0.140281 149.214 0.656193 149.214 1.71668L149.178 2.813L149.186 2.80583Z" fill="#B49930"/>
<path d="M174.314 22.7905C178.558 22.7905 182.193 24.2809 185.235 27.2618C188.277 30.2426 189.794 33.7967 189.794 37.9168C189.794 42.3952 188.298 46.0926 185.307 49.0161C182.315 51.9396 178.536 53.4014 173.963 53.4014C169.39 53.4014 165.804 51.9826 162.92 49.1451C160.036 46.3076 158.59 42.6747 158.59 38.2464C158.59 33.8182 160.121 30.3143 163.185 27.3119C166.248 24.3096 169.955 22.8049 174.314 22.8049V22.7905ZM173.412 24.2021C170.47 24.2021 168.101 25.2913 166.305 27.4767C164.509 29.655 163.607 32.5212 163.607 36.0538C163.607 40.5609 164.731 44.3299 166.978 47.3609C169.225 50.3919 172.016 51.9038 175.359 51.9038C178.279 51.9038 180.576 50.829 182.258 48.6865C183.94 46.5369 184.784 43.6277 184.784 39.9446C184.784 35.3014 183.725 31.5109 181.607 28.5874C179.488 25.6639 176.761 24.2021 173.419 24.2021H173.412Z" fill="#B49930"/>
<path d="M206.613 47.2387L213.555 32.9795L212.868 31.1953C212.016 28.9095 211.322 27.4048 210.764 26.681C210.213 25.9573 209.404 25.4486 208.345 25.162C207.758 25.0258 207.464 24.7822 207.464 24.4382C207.464 23.9295 207.844 23.6787 208.595 23.6787C208.903 23.6787 209.397 23.7217 210.084 23.8005C210.936 23.908 212.195 23.9653 213.877 23.9653C215.294 23.9653 216.675 23.9008 218.021 23.7647C218.586 23.7074 218.951 23.6859 219.116 23.6859C219.846 23.6859 220.218 23.908 220.218 24.3451C220.218 24.7607 219.968 25.0258 219.474 25.1405L218.379 25.3913C217.434 25.6062 216.969 26.3013 216.969 27.4836C216.969 28.0066 217.226 28.9525 217.749 30.3211L224.04 46.9306L227.747 38.2461L229.157 34.9858C230.338 32.2916 230.925 30.0631 230.925 28.2861C230.925 27.3689 230.631 26.6165 230.045 26.0361C229.458 25.4557 228.699 25.1691 227.783 25.1691C227.074 25.1691 226.724 24.9255 226.724 24.4454C226.724 23.9653 227.017 23.7217 227.604 23.7217C227.955 23.7217 228.413 23.7432 228.978 23.7934C229.637 23.865 230.796 23.9008 232.464 23.9008C234.131 23.9008 235.391 23.8793 236.021 23.8292C236.607 23.779 237.051 23.7575 237.359 23.7575C237.853 23.7575 238.096 23.9653 238.096 24.3738C238.096 24.7105 237.838 24.9757 237.316 25.1691C236.464 25.4271 235.827 25.7854 235.391 26.2439C234.954 26.7025 234.489 27.4836 233.995 28.5942L223.997 52.0611C223.603 52.9568 223.045 53.401 222.322 53.401C221.649 53.401 221.17 53.0213 220.891 52.2689L214.6 35.7095L206.505 52.5483C206.226 53.1646 205.74 53.4655 205.038 53.4655C204.43 53.4655 204.036 53.2076 203.85 52.6845L195.477 31.0018L194.84 29.3036C194.088 27.3904 192.886 26.0935 191.233 25.4056C190.667 25.1763 190.381 24.8897 190.381 24.5386C190.381 24.08 190.767 23.8435 191.547 23.8435C191.762 23.8435 192.17 23.865 192.786 23.9152C193.516 23.9868 194.797 24.0226 196.636 24.0226L200.379 23.951L201.861 23.9152L202.676 24.0943C202.863 24.1946 202.963 24.3738 202.963 24.6389C202.941 24.9757 202.712 25.205 202.29 25.3268L201.338 25.5704C200.257 25.857 199.713 26.5592 199.713 27.6914C199.713 28.2073 200.05 29.3967 200.73 31.2598L206.598 47.2244L206.613 47.2387Z" fill="#B49930"/>
<path d="M243.542 34.893L243.507 35.674C243.507 39.7082 244.623 43.0974 246.849 45.849C249.082 48.6005 251.823 49.9691 255.079 49.9691C257.649 49.9691 260.447 48.8155 263.467 46.501C263.653 46.3577 263.832 46.2789 263.997 46.2502C264.326 46.2288 264.491 46.4151 264.491 46.8163C264.491 47.5185 263.668 48.5145 262.014 49.8115C258.951 52.2047 255.709 53.4014 252.295 53.4014C248.452 53.4014 245.231 51.9396 242.634 49.0161C240.028 46.0926 238.726 42.4812 238.726 38.1676C238.726 33.854 240.071 30.4791 242.755 27.4051C245.439 24.3311 248.588 22.7905 252.188 22.7905C256.124 22.7905 259.266 24.4314 261.621 27.706C262.186 28.5086 262.766 29.5906 263.353 30.9592C263.94 32.3278 264.233 33.2808 264.233 33.8253C264.233 34.6064 263.467 34.9933 261.936 34.9933L259.316 34.9575L256.912 34.8858H243.528L243.542 34.893ZM243.757 32.944H255.738C257.599 32.944 258.529 32.5642 258.529 31.8118C258.529 29.9703 257.735 28.2649 256.146 26.6814C254.557 25.105 252.832 24.3096 250.971 24.3096C249.111 24.3096 247.429 25.0835 246.148 26.6241C244.866 28.1718 244.065 30.2713 243.764 32.9368L243.757 32.944Z" fill="#B49930"/>
<path d="M278.705 29.2322C281.438 24.9401 283.958 22.7904 286.269 22.7904C286.999 22.7904 287.958 23.2275 289.146 24.1017C290.335 24.9759 290.957 25.6853 291 26.2227C291.022 26.5738 290.649 27.2187 289.869 28.1645C289.096 29.1104 288.545 29.5905 288.216 29.6191C288.051 29.6191 287.536 29.3397 286.663 28.7664C285.654 28.057 284.688 27.7059 283.772 27.7059C282.34 27.7059 281.138 28.229 280.179 29.268C279.213 30.307 278.733 31.604 278.733 33.1589V45.7629C278.733 47.7406 278.998 49.145 279.528 49.9834C280.057 50.8217 280.98 51.2946 282.304 51.4093L284.144 51.5526C284.895 51.6028 285.275 51.8392 285.275 52.262C285.275 52.7349 284.945 52.9714 284.28 52.9714C284.115 52.9714 283.557 52.914 282.612 52.7922C282.161 52.7421 281.503 52.7206 280.63 52.7206L278.082 52.6847H276.522C274.682 52.6847 273.373 52.7421 272.593 52.8639C271.977 52.957 271.555 53.0143 271.319 53.043C270.682 53.0645 270.36 52.8352 270.36 52.3551C270.36 51.961 270.725 51.6959 271.455 51.5598C272.464 51.3233 273.122 50.8862 273.416 50.2485C273.709 49.6108 273.859 48.2565 273.859 46.1785V31.0021C273.859 28.2863 272.564 26.9321 269.973 26.9321L268.771 26.9679C268.227 26.9679 267.955 26.7243 267.955 26.2442C267.955 25.9576 268.134 25.7354 268.484 25.5921C268.699 25.542 268.957 25.5062 269.265 25.4847C271.476 25.2697 274.095 24.2379 277.109 22.3677C277.416 22.2029 277.688 22.1097 277.924 22.0882C278.468 22.0667 278.74 22.468 278.74 23.292L278.705 23.9656V29.2393V29.2322Z" fill="#B49930"/>
</svg>
