<svg xmlns="http://www.w3.org/2000/svg" width="25" height="25" viewBox="0 0 25 25" fill="none">
<path d="M4.5 2.56982H20.5C21.0304 2.56982 21.5391 2.78054 21.9142 3.15561C22.2893 3.53068 22.5 4.03939 22.5 4.56982V14.5698C22.5 15.1003 22.2893 15.609 21.9142 15.984C21.5391 16.3591 21.0304 16.5698 20.5 16.5698H15.5V20.5698H18.5V22.5698H13.5V16.5698H11.5V22.5698H6.5V20.5698H9.5V16.5698H4.5C3.96957 16.5698 3.46086 16.3591 3.08579 15.984C2.71071 15.609 2.5 15.1003 2.5 14.5698V4.56982C2.5 4.03939 2.71071 3.53068 3.08579 3.15561C3.46086 2.78054 3.96957 2.56982 4.5 2.56982ZM4.5 4.56982V8.56982H11.5V4.56982H4.5ZM4.5 14.5698H11.5V10.5698H4.5V14.5698ZM20.5 14.5698V10.5698H13.5V14.5698H20.5ZM20.5 4.56982H13.5V8.56982H20.5V4.56982Z" fill="#25205B"/>
</svg>