<svg xmlns="http://www.w3.org/2000/svg" width="25" height="25" viewBox="0 0 25 25" fill="none">
<path d="M17.5 17.5698C17.9167 17.5698 18.271 17.4238 18.563 17.1318C18.855 16.8398 19.0007 16.4858 19 16.0698C19 15.6532 18.854 15.2988 18.562 15.0068C18.27 14.7148 17.916 14.5692 17.5 14.5698C17.0833 14.5698 16.729 14.7158 16.437 15.0078C16.145 15.2998 15.9993 15.6538 16 16.0698C16 16.4865 16.146 16.8408 16.438 17.1328C16.73 17.4248 17.084 17.5705 17.5 17.5698ZM17.5 20.5698C18.0167 20.5698 18.4917 20.4488 18.925 20.2068C19.3583 19.9648 19.7083 19.6442 19.975 19.2448C19.6083 19.0282 19.2167 18.8615 18.8 18.7448C18.3833 18.6282 17.95 18.5698 17.5 18.5698C17.05 18.5698 16.6167 18.6282 16.2 18.7448C15.7833 18.8615 15.3917 19.0282 15.025 19.2448C15.2917 19.6448 15.6417 19.9658 16.075 20.2078C16.5083 20.4498 16.9833 20.5705 17.5 20.5698ZM12.5 22.5698C10.1833 21.9865 8.27067 20.6572 6.762 18.5818C5.25333 16.5065 4.49933 14.2025 4.5 11.6698V5.56982L12.5 2.56982L20.5 5.56982V11.2448C20.1833 11.1115 19.8583 10.9905 19.525 10.8818C19.1917 10.7732 18.85 10.6942 18.5 10.6448V6.96982L12.5 4.71982L6.5 6.96982V11.6698C6.5 12.4532 6.60433 13.2365 6.813 14.0198C7.02167 14.8032 7.31333 15.5492 7.688 16.2578C8.06267 16.9658 8.51667 17.6198 9.05 18.2198C9.58333 18.8198 10.175 19.3198 10.825 19.7198C11.0083 20.2532 11.25 20.7615 11.55 21.2448C11.85 21.7282 12.1917 22.1615 12.575 22.5448C12.5583 22.5448 12.546 22.5492 12.538 22.5578C12.53 22.5665 12.5173 22.5705 12.5 22.5698ZM17.5 22.5698C16.1167 22.5698 14.9373 22.0822 13.962 21.1068C12.9867 20.1315 12.4993 18.9525 12.5 17.5698C12.5 16.1865 12.9877 15.0072 13.963 14.0318C14.9383 13.0565 16.1173 12.5692 17.5 12.5698C18.8833 12.5698 20.0627 13.0575 21.038 14.0328C22.0133 15.0082 22.5007 16.1872 22.5 17.5698C22.5 18.9532 22.0123 20.1325 21.037 21.1078C20.0617 22.0832 18.8827 22.5705 17.5 22.5698Z" fill="#25205B"/>
</svg>