<svg xmlns="http://www.w3.org/2000/svg" width="25" height="25" viewBox="0 0 25 25" fill="none">
<path d="M18.5 11.5698V13.5698H22.5V11.5698H18.5ZM16.5 18.1798C17.46 18.8898 18.71 19.8298 19.7 20.5698C20.1 20.0398 20.5 19.4998 20.9 18.9698C19.91 18.2298 18.66 17.2898 17.7 16.5698C17.3 17.1098 16.9 17.6498 16.5 18.1798ZM20.9 6.16982C20.5 5.63982 20.1 5.09982 19.7 4.56982C18.71 5.30982 17.46 6.24982 16.5 6.96982C16.9 7.49982 17.3 8.03982 17.7 8.56982C18.66 7.84982 19.91 6.91982 20.9 6.16982ZM4.5 9.56982C3.4 9.56982 2.5 10.4698 2.5 11.5698V13.5698C2.5 14.6698 3.4 15.5698 4.5 15.5698H5.5V19.5698H7.5V15.5698H8.5L13.5 18.5698V6.56982L8.5 9.56982H4.5ZM9.53 11.2798L11.5 10.0998V15.0398L9.53 13.8598L9.05 13.5698H4.5V11.5698H9.05L9.53 11.2798ZM16 12.5698C16 11.2398 15.42 10.0398 14.5 9.21982V15.9098C15.42 15.0998 16 13.8998 16 12.5698Z" fill="#25205B"/>
</svg>