<svg xmlns="http://www.w3.org/2000/svg" width="25" height="25" viewBox="0 0 25 25" fill="none">
<path d="M12.5 4.56982C13.5609 4.56982 14.5783 4.99125 15.3284 5.7414C16.0786 6.49154 16.5 7.50896 16.5 8.56982C16.5 9.63069 16.0786 10.6481 15.3284 11.3983C14.5783 12.1484 13.5609 12.5698 12.5 12.5698C11.4391 12.5698 10.4217 12.1484 9.67157 11.3983C8.92143 10.6481 8.5 9.63069 8.5 8.56982C8.5 7.50896 8.92143 6.49154 9.67157 5.7414C10.4217 4.99125 11.4391 4.56982 12.5 4.56982ZM12.5 6.56982C11.9696 6.56982 11.4609 6.78054 11.0858 7.15561C10.7107 7.53068 10.5 8.03939 10.5 8.56982C10.5 9.10026 10.7107 9.60896 11.0858 9.98404C11.4609 10.3591 11.9696 10.5698 12.5 10.5698C13.0304 10.5698 13.5391 10.3591 13.9142 9.98404C14.2893 9.60896 14.5 9.10026 14.5 8.56982C14.5 8.03939 14.2893 7.53068 13.9142 7.15561C13.5391 6.78054 13.0304 6.56982 12.5 6.56982ZM12.5 13.5698C15.17 13.5698 20.5 14.8998 20.5 17.5698V20.5698H4.5V17.5698C4.5 14.8998 9.83 13.5698 12.5 13.5698ZM12.5 15.4698C9.53 15.4698 6.4 16.9298 6.4 17.5698V18.6698H18.6V17.5698C18.6 16.9298 15.47 15.4698 12.5 15.4698Z" fill="#25205B"/>
</svg>